<?xml version="1.0" encoding="UTF-8"?>
<svg id="Layer_2" data-name="Layer 2" xmlns="http://www.w3.org/2000/svg" viewBox="0 0 605.27 600.04">
  <defs>
    <style>
      .cls-1 {
        fill: #fff;
      }
    </style>
  </defs>
  <g id="Layer_1-2" data-name="Layer 1">
    <circle class="cls-1" cx="270.18" cy="119.97" r="3.87"/>
    <circle class="cls-1" cx="161.49" cy="266.01" r="7.48"/>
    <circle class="cls-1" cx="211.62" cy="51.03" r="5.63"/>
    <circle class="cls-1" cx="369.41" cy="211.11" r="4.86"/>
    <circle class="cls-1" cx="221.02" cy="288.22" r="5.55"/>
    <circle class="cls-1" cx="466.9" cy="279.04" r="4.37"/>
    <circle class="cls-1" cx="13.22" cy="572.13" r="6"/>
    <circle class="cls-1" cx="54.2" cy="90.04" r="6.74"/>
    <circle class="cls-1" cx="184.1" cy="304.93" r="3.71"/>
    <circle class="cls-1" cx="574.37" cy="586.87" r="5.97"/>
    <circle class="cls-1" cx="76.32" cy="394.38" r="6.93"/>
    <circle class="cls-1" cx="334.44" cy="157.9" r="5.86"/>
    <circle class="cls-1" cx="450.27" cy="382.08" r="5.38"/>
    <circle class="cls-1" cx="140.72" cy="294.39" r="6.62"/>
    <circle class="cls-1" cx="9.23" cy="365.16" r="6.15"/>
    <circle class="cls-1" cx="137.21" cy="12.31" r="3.75"/>
    <circle class="cls-1" cx="243.89" cy="395.65" r="3.47"/>
    <circle class="cls-1" cx="6.08" cy="306.27" r="6.08"/>
    <circle class="cls-1" cx="115.01" cy="245.46" r="6.23"/>
    <circle class="cls-1" cx="236.23" cy="554.02" r="4.58"/>
    <circle class="cls-1" cx="314.61" cy="281.77" r="6.82"/>
    <circle class="cls-1" cx="110.89" cy="401.43" r="3.91"/>
    <circle class="cls-1" cx="364.98" cy="137.86" r="4.93"/>
    <circle class="cls-1" cx="484.39" cy="571.71" r="4.84"/>
    <circle class="cls-1" cx="277.98" cy="454.98" r="7.28"/>
    <circle class="cls-1" cx="109.25" cy="595.2" r="4.84"/>
    <circle class="cls-1" cx="588.56" cy="503.99" r="4.37"/>
    <circle class="cls-1" cx="265.29" cy="413.17" r="5.72"/>
    <circle class="cls-1" cx="61.33" cy="279.96" r="5.49"/>
    <circle class="cls-1" cx="304.28" cy="473.45" r="6.45"/>
    <circle class="cls-1" cx="453.92" cy="578.45" r="3.74"/>
    <circle class="cls-1" cx="345.59" cy="498.94" r="4.33"/>
    <circle class="cls-1" cx="110.62" cy="128.23" r="4.23"/>
    <circle class="cls-1" cx="512.22" cy="274.94" r="7.21"/>
    <circle class="cls-1" cx="65.56" cy="350.8" r="7.06"/>
    <circle class="cls-1" cx="408.43" cy="134.79" r="6.89"/>
    <circle class="cls-1" cx="67.23" cy="201.62" r="6.01"/>
    <circle class="cls-1" cx="411.1" cy="58.05" r="6.22"/>
    <circle class="cls-1" cx="465.07" cy="6.59" r="6.59"/>
    <circle class="cls-1" cx="50.21" cy="579.49" r="3.67"/>
    <circle class="cls-1" cx="506.41" cy="197.14" r="4.9"/>
    <circle class="cls-1" cx="110.55" cy="380.36" r="4.27"/>
    <circle class="cls-1" cx="173.24" cy="282.89" r="5.84"/>
    <circle class="cls-1" cx="521.37" cy="423.5" r="5.81"/>
    <circle class="cls-1" cx="485.67" cy="415.37" r="5.05"/>
    <circle class="cls-1" cx="438.88" cy="322.97" r="6.03"/>
    <circle class="cls-1" cx="36.17" cy="461.24" r="6.35"/>
    <circle class="cls-1" cx="592.35" cy="435.71" r="6.63"/>
    <circle class="cls-1" cx="439.82" cy="158.57" r="7.44"/>
    <circle class="cls-1" cx="383.49" cy="248.23" r="4.55"/>
    <circle class="cls-1" cx="73.03" cy="573.74" r="6.01"/>
    <circle class="cls-1" cx="26.52" cy="533.64" r="3.95"/>
    <circle class="cls-1" cx="98.35" cy="534.9" r="5.28"/>
    <circle class="cls-1" cx="216.33" cy="196.81" r="4.56"/>
    <circle class="cls-1" cx="532.12" cy="303.1" r="5.88"/>
    <circle class="cls-1" cx="440.84" cy="33.86" r="7.05"/>
    <circle class="cls-1" cx="289.76" cy="228.69" r="6.67"/>
    <circle class="cls-1" cx="535.22" cy="130.48" r="5.13"/>
    <circle class="cls-1" cx="461.46" cy="558.27" r="4.52"/>
    <circle class="cls-1" cx="235.56" cy="38.8" r="6.57"/>
    <circle class="cls-1" cx="252.75" cy="525.46" r="7.48"/>
    <circle class="cls-1" cx="352.31" cy="126.88" r="6.14"/>
    <circle class="cls-1" cx="600.04" cy="206.44" r="5.23"/>
    <circle class="cls-1" cx="374.57" cy="516.04" r="5.3"/>
    <circle class="cls-1" cx="159.09" cy="571.62" r="5.79"/>
    <circle class="cls-1" cx="61.36" cy="132.46" r="3.75"/>
    <circle class="cls-1" cx="295.93" cy="543.2" r="6.84"/>
    <circle class="cls-1" cx="297.1" cy="526.43" r="7.1"/>
    <circle class="cls-1" cx="203.79" cy="100.13" r="5.34"/>
    <circle class="cls-1" cx="414.6" cy="379.94" r="6.83"/>
    <circle class="cls-1" cx="57.76" cy="381.64" r="3.65"/>
    <circle class="cls-1" cx="142.55" cy="157.33" r="5.13"/>
    <circle class="cls-1" cx="519.18" cy="153.5" r="6.21"/>
    <circle class="cls-1" cx="340.48" cy="276.3" r="7.34"/>
    <circle class="cls-1" cx="45.51" cy="342.05" r="5.78"/>
    <circle class="cls-1" cx="569.35" cy="17.19" r="4.48"/>
  </g>
</svg>